<svg xmlns="http://www.w3.org/2000/svg" viewBox="0 0 32 32" width="32" height="32">
  <rect width="32" height="32" rx="7" fill="#7c6fd6"/>
  <g transform="translate(4,4)" fill="none" stroke="#ffffff" stroke-width="2" stroke-linecap="round" stroke-linejoin="round">
    <path d="M20 2H4a2 2 0 0 0-2 2v11a2 2 0 0 0 2 2h3v4l5-4h8a2 2 0 0 0 2-2V4a2 2 0 0 0-2-2Z"/>
    <path d="M9 12c.8.9 1.9 1.3 3 1.3s2.2-.4 3-1.3"/>
    <circle cx="9" cy="9.2" r="1" fill="#ffffff" stroke="none"/>
    <circle cx="15" cy="9.2" r="1" fill="#ffffff" stroke="none"/>
  </g>
</svg>
